<svg width="16" height="16" viewBox="0 0 16 16" fill="none" xmlns="http://www.w3.org/2000/svg"><path d="M5 4C5 3.44772 4.55228 3 4 3C3.44772 3 3 3.44772 3 4C3 4.55228 3.44772 5 4 5C4.55228 5 5 4.55228 5 4Z" fill="currentColor"></path><path d="M5 6C5 5.44772 4.55228 5 4 5C3.44772 5 3 5.44772 3 6C3 6.55228 3.44772 7 4 7C4.55228 7 5 6.55228 5 6Z" fill="currentColor"></path><path d="M7 2C7 1.44772 6.55228 1 6 1C5.44772 1 5 1.44772 5 2C5 2.55228 5.44772 3 6 3C6.55228 3 7 2.55228 7 2Z" fill="currentColor"></path><path d="M9 2C9 1.44772 8.55228 1 8 1C7.44772 1 7 1.44772 7 2C7 2.55228 7.44772 3 8 3C8.55228 3 9 2.55228 9 2Z" fill="currentColor"></path><path d="M11 2C11 1.44772 10.5523 1 10 1C9.44772 1 9 1.44772 9 2C9 2.55228 9.44772 3 10 3C10.5523 3 11 2.55228 11 2Z" fill="currentColor"></path><path d="M13 4C13 3.44772 12.5523 3 12 3C11.4477 3 11 3.44772 11 4C11 4.55228 11.4477 5 12 5C12.5523 5 13 4.55228 13 4Z" fill="currentColor"></path><path d="M13 6C13 5.44772 12.5523 5 12 5C11.4477 5 11 5.44772 11 6C11 6.55228 11.4477 7 12 7C12.5523 7 13 6.55228 13 6Z" fill="currentColor"></path><path d="M11 8C11 7.44772 10.5523 7 10 7C9.44772 7 9 7.44772 9 8C9 8.55228 9.44772 9 10 9C10.5523 9 11 8.55228 11 8Z" fill="currentColor"></path><path d="M9 10C9 9.44772 8.55228 9 8 9C7.44772 9 7 9.44772 7 10C7 10.5523 7.44772 11 8 11C8.55228 11 9 10.5523 9 10Z" fill="currentColor"></path><path d="M9 14C9 13.4477 8.55228 13 8 13C7.44772 13 7 13.4477 7 14C7 14.5523 7.44772 15 8 15C8.55228 15 9 14.5523 9 14Z" fill="currentColor"></path></svg>