<svg width="16" height="16" viewBox="0 0 16 16" fill="none" xmlns="http://www.w3.org/2000/svg"><g><path d="M6 4C6.55228 4 7 3.55228 7 3C7 2.44772 6.55228 2 6 2C5.44772 2 5 2.44772 5 3C5 3.55228 5.44772 4 6 4Z" fill="currentColor"></path><path d="M14 16C14.5523 16 15 15.5523 15 15C15 14.4477 14.5523 14 14 14C13.4477 14 13 14.4477 13 15C13 15.5523 13.4477 16 14 16Z" fill="currentColor"></path><path d="M14 12C14.5523 12 15 11.5523 15 11C15 10.4477 14.5523 10 14 10C13.4477 10 13 10.4477 13 11C13 11.5523 13.4477 12 14 12Z" fill="currentColor"></path><path d="M14 14C14.5523 14 15 13.5523 15 13C15 12.4477 14.5523 12 14 12C13.4477 12 13 12.4477 13 13C13 13.5523 13.4477 14 14 14Z" fill="currentColor"></path><path d="M14 8C14.5523 8 15 7.55228 15 7C15 6.44772 14.5523 6 14 6C13.4477 6 13 6.44772 13 7C13 7.55228 13.4477 8 14 8Z" fill="currentColor"></path><path d="M8 12C8.55228 12 9 11.5523 9 11C9 10.4477 8.55228 10 8 10C7.44772 10 7 10.4477 7 11C7 11.5523 7.44772 12 8 12Z" fill="currentColor"></path><path d="M6 10C6.55228 10 7 9.55228 7 9C7 8.44772 6.55228 8 6 8C5.44772 8 5 8.44772 5 9C5 9.55228 5.44772 10 6 10Z" fill="currentColor"></path><path d="M10 10C10.5523 10 11 9.55228 11 9C11 8.44772 10.5523 8 10 8C9.44772 8 9 8.44772 9 9C9 9.55228 9.44772 10 10 10Z" fill="currentColor"></path><path d="M14 10C14.5523 10 15 9.55228 15 9C15 8.44772 14.5523 8 14 8C13.4477 8 13 8.44772 13 9C13 9.55228 13.4477 10 14 10Z" fill="currentColor"></path><path d="M2 16C2.55228 16 3 15.5523 3 15C3 14.4477 2.55228 14 2 14C1.44772 14 1 14.4477 1 15C1 15.5523 1.44772 16 2 16Z" fill="currentColor"></path><path d="M2 10C2.55228 10 3 9.55228 3 9C3 8.44772 2.55228 8 2 8C1.44772 8 1 8.44772 1 9C1 9.55228 1.44772 10 2 10Z" fill="currentColor"></path><path d="M2 12C2.55228 12 3 11.5523 3 11C3 10.4477 2.55228 10 2 10C1.44772 10 1 10.4477 1 11C1 11.5523 1.44772 12 2 12Z" fill="currentColor"></path><path d="M2 14C2.55228 14 3 13.5523 3 13C3 12.4477 2.55228 12 2 12C1.44772 12 1 12.4477 1 13C1 13.5523 1.44772 14 2 14Z" fill="currentColor"></path><path d="M2 8C2.55228 8 3 7.55228 3 7C3 6.44772 2.55228 6 2 6C1.44772 6 1 6.44772 1 7C1 7.55228 1.44772 8 2 8Z" fill="currentColor"></path><path d="M4 6C4.55228 6 5 5.55228 5 5C5 4.44772 4.55228 4 4 4C3.44772 4 3 4.44772 3 5C3 5.55228 3.44772 6 4 6Z" fill="currentColor"></path><path d="M10 4C10.5523 4 11 3.55228 11 3C11 2.44772 10.5523 2 10 2C9.44772 2 9 2.44772 9 3C9 3.55228 9.44772 4 10 4Z" fill="currentColor"></path><path d="M12 6C12.5523 6 13 5.55228 13 5C13 4.44772 12.5523 4 12 4C11.4477 4 11 4.44772 11 5C11 5.55228 11.4477 6 12 6Z" fill="currentColor"></path><path d="M12 16C12.5523 16 13 15.5523 13 15C13 14.4477 12.5523 14 12 14C11.4477 14 11 14.4477 11 15C11 15.5523 11.4477 16 12 16Z" fill="currentColor"></path><path d="M10 16C10.5523 16 11 15.5523 11 15C11 14.4477 10.5523 14 10 14C9.44772 14 9 14.4477 9 15C9 15.5523 9.44772 16 10 16Z" fill="currentColor"></path><path d="M8 2C8.55228 2 9 1.55228 9 1C9 0.447715 8.55228 2.41411e-08 8 0C7.44772 -2.41411e-08 7 0.447715 7 1C7 1.55228 7.44772 2 8 2Z" fill="currentColor"></path><path d="M8 16C8.55228 16 9 15.5523 9 15C9 14.4477 8.55228 14 8 14C7.44772 14 7 14.4477 7 15C7 15.5523 7.44772 16 8 16Z" fill="currentColor"></path><path d="M6 16C6.55228 16 7 15.5523 7 15C7 14.4477 6.55228 14 6 14C5.44772 14 5 14.4477 5 15C5 15.5523 5.44772 16 6 16Z" fill="currentColor"></path><path d="M4 16C4.55228 16 5 15.5523 5 15C5 14.4477 4.55228 14 4 14C3.44772 14 3 14.4477 3 15C3 15.5523 3.44772 16 4 16Z" fill="currentColor"></path></g></svg>