<svg width="16" height="16" viewBox="0 0 16 16" fill="none" xmlns="http://www.w3.org/2000/svg"><path d="M13 4C13.5523 4 14 3.55228 14 3C14 2.44772 13.5523 2 13 2C12.4477 2 12 2.44772 12 3C12 3.55228 12.4477 4 13 4Z" fill="currentColor"></path><path d="M11 2C11.5523 2 12 1.55228 12 1C12 0.447715 11.5523 2.41411e-08 11 0C10.4477 -2.41411e-08 10 0.447715 10 1C10 1.55228 10.4477 2 11 2Z" fill="currentColor"></path><path d="M9 2C9.55228 2 10 1.55228 10 1C10 0.447715 9.55228 2.41411e-08 9 0C8.44772 -2.41411e-08 8 0.447715 8 1C8 1.55228 8.44772 2 9 2Z" fill="currentColor"></path><path d="M7 2C7.55228 2 8 1.55228 8 1C8 0.447715 7.55228 2.41411e-08 7 0C6.44772 -2.41411e-08 6 0.447715 6 1C6 1.55228 6.44772 2 7 2Z" fill="currentColor"></path><path d="M5 2C5.55228 2 6 1.55228 6 1C6 0.447715 5.55228 2.41411e-08 5 0C4.44772 -2.41411e-08 4 0.447715 4 1C4 1.55228 4.44772 2 5 2Z" fill="currentColor"></path><path d="M3 8C3.55228 8 4 7.55228 4 7C4 6.44772 3.55228 6 3 6C2.44772 6 2 6.44772 2 7C2 7.55228 2.44772 8 3 8Z" fill="currentColor"></path><path d="M8 16C8.55228 16 9 15.5523 9 15C9 14.4477 8.55228 14 8 14C7.44772 14 7 14.4477 7 15C7 15.5523 7.44772 16 8 16Z" fill="currentColor"></path><path d="M9 14C9.55228 14 10 13.5523 10 13C10 12.4477 9.55228 12 9 12C8.44772 12 8 12.4477 8 13C8 13.5523 8.44772 14 9 14Z" fill="currentColor"></path><path d="M11 12C11.5523 12 12 11.5523 12 11C12 10.4477 11.5523 10 11 10C10.4477 10 10 10.4477 10 11C10 11.5523 10.4477 12 11 12Z" fill="currentColor"></path><path d="M5 12C5.55228 12 6 11.5523 6 11C6 10.4477 5.55228 10 5 10C4.44772 10 4 10.4477 4 11C4 11.5523 4.44772 12 5 12Z" fill="currentColor"></path><path d="M3 10C3.55228 10 4 9.55228 4 9C4 8.44772 3.55228 8 3 8C2.44772 8 2 8.44772 2 9C2 9.55228 2.44772 10 3 10Z" fill="currentColor"></path><path d="M13 10C13.5523 10 14 9.55228 14 9C14 8.44772 13.5523 8 13 8C12.4477 8 12 8.44772 12 9C12 9.55228 12.4477 10 13 10Z" fill="currentColor"></path><path d="M7 6C7.55228 6 8 5.55228 8 5C8 4.44772 7.55228 4 7 4C6.44772 4 6 4.44772 6 5C6 5.55228 6.44772 6 7 6Z" fill="currentColor"></path><path d="M9 6C9.55228 6 10 5.55228 10 5C10 4.44772 9.55228 4 9 4C8.44772 4 8 4.44772 8 5C8 5.55228 8.44772 6 9 6Z" fill="currentColor"></path><path d="M9 8C9.55228 8 10 7.55228 10 7C10 6.44772 9.55228 6 9 6C8.44772 6 8 6.44772 8 7C8 7.55228 8.44772 8 9 8Z" fill="currentColor"></path><path d="M7 8C7.55228 8 8 7.55228 8 7C8 6.44772 7.55228 6 7 6C6.44772 6 6 6.44772 6 7C6 7.55228 6.44772 8 7 8Z" fill="currentColor"></path><path d="M7 14C7.55228 14 8 13.5523 8 13C8 12.4477 7.55228 12 7 12C6.44772 12 6 12.4477 6 13C6 13.5523 6.44772 14 7 14Z" fill="currentColor"></path><path d="M3 6C3.55228 6 4 5.55228 4 5C4 4.44772 3.55228 4 3 4C2.44772 4 2 4.44772 2 5C2 5.55228 2.44772 6 3 6Z" fill="currentColor"></path><path d="M3 4C3.55228 4 4 3.55228 4 3C4 2.44772 3.55228 2 3 2C2.44772 2 2 2.44772 2 3C2 3.55228 2.44772 4 3 4Z" fill="currentColor"></path><path d="M13 6C13.5523 6 14 5.55228 14 5C14 4.44772 13.5523 4 13 4C12.4477 4 12 4.44772 12 5C12 5.55228 12.4477 6 13 6Z" fill="currentColor"></path><path d="M13 8C13.5523 8 14 7.55228 14 7C14 6.44772 13.5523 6 13 6C12.4477 6 12 6.44772 12 7C12 7.55228 12.4477 8 13 8Z" fill="currentColor"></path></svg>